<?xml version="1.0" encoding="utf-8"?>
<!-- Generator: Adobe Illustrator 21.0.0, SVG Export Plug-In . SVG Version: 6.00 Build 0)  -->
<svg version="1.1" id="Warstwa_1" xmlns="http://www.w3.org/2000/svg" xmlns:xlink="http://www.w3.org/1999/xlink" x="0px" y="0px"
	 viewBox="0 0 1000 1000" style="enable-background:new 0 0 1000 1000;" xml:space="preserve">
<style type="text/css">
	.st0{display:none;}
	.st1{fill:#FF7C00;}
	.st2{fill:#FFFFFF;}
	
		.st3{display:inline;fill-rule:evenodd;clip-rule:evenodd;fill:#FF7C00;stroke:#FF7C00;stroke-width:12;stroke-linejoin:bevel;stroke-miterlimit:10;}
	.st4{fill:#FF7C00;stroke:#FF7C00;stroke-width:6.5297;stroke-miterlimit:10;}
</style>
<path class="st0" d="M-2596.2,589.4c0,8.9,0.1,17.8,0,26.7c-0.6,32.7-26.4,58.7-59.2,59.3c-18.2,0.3-36.4,0.3-54.6,0
	c-29.9-0.6-55.7-23.2-58.1-52.8c-1.7-21.9-1.7-44.1-0.1-66c2.2-29.2,25.9-51.7,55.1-53.3c20.4-1.1,41-1.2,61.5,0
	c31.3,1.9,54.9,28,55.4,59.4C-2596.1,571.6-2596.2,580.5-2596.2,589.4z"/>
<path class="st0" d="M-2358.9,357.4c0,8.5,0.1,17,0,25.5c-0.3,32.3-23.6,58-55.8,59.9c-20,1.1-40.2,1.1-60.3,0
	c-30.1-1.6-54-25-55.8-55.2c-1.3-20.4-1.3-41,0-61.4c2.1-31.7,27.6-55,59.2-55.6c17.8-0.3,35.6-0.3,53.4,0
	c33.6,0.6,59.1,26.5,59.4,60.1C-2358.9,339.6-2358.9,348.5-2358.9,357.4z"/>
<path class="st0" d="M-2358.9,589.8c0,8.9,0.1,17.8,0,26.7c-0.5,32.2-25.9,58.1-58.2,58.9c-18.2,0.4-36.4,0.4-54.5,0
	c-31.6-0.5-57.1-23.9-59.2-55.6c-1.3-20.4-1.3-41,0-61.4c1.9-30.6,26.1-53.9,57-55.3c19.3-0.9,38.7-0.9,58,0
	c32.9,1.6,56.7,27.2,57,60C-2358.9,572-2359,580.9-2358.9,589.8z"/>
<path class="st0" d="M-2596.2,357.8c0,8.5,0.1,17,0,25.5c-0.5,31.9-24.4,57.8-56.5,59.6c-20,1.1-40.3,1-60.3-0.1
	c-28.7-1.6-52.6-23.5-54.9-52.1c-1.9-22.6-1.8-45.7,0-68.3c2.3-28.4,27.9-50.8,56.7-51.7c18.9-0.6,37.9-0.5,56.9,0
	c32.1,0.8,57.6,27.1,58.1,59.3C-2596.1,339.2-2596.2,348.5-2596.2,357.8z"/>
<g>
	<path class="st1" d="M249.1,329.9c0-21.8-0.1-43.5,0-65.3c0.2-26,16.3-43.1,42.1-43.4c45.8-0.5,91.6-0.5,137.4,0
		c24.8,0.3,41.3,17.7,41.5,42.7c0.3,45.4,0.3,90.7,0,136.1c-0.1,25.2-16.1,42.3-41.4,42.7c-46.3,0.7-92.6,0.7-138.8,0
		c-24.8-0.4-40.6-18-40.8-43.3C248.9,376.2,249.1,353,249.1,329.9z"/>
	<path class="st1" d="M864.2,214.7c0-15.3,0.1-30.6,0-45.8c-0.4-31.3-16-47.1-47.1-47.2c-31-0.2-62,0-93-0.1
		c-20.2-0.1-33.6-11.9-33.5-29.2c0.1-17.2,13.3-28.5,34-28.5c31-0.1,62,0,93,0c61.3,0,102.5,39.1,104.4,100.3
		c1,32.4,0.4,64.8,0,97.2c-0.3,20.5-12.5,33.6-29.6,33.2c-17.6-0.4-28.2-13-28.3-34C864.2,245.3,864.2,230,864.2,214.7z"/>
	<path class="st1" d="M774.8,893.7c-17.1,0-34.3,0.1-51.4,0c-19.6-0.1-32.7-11.4-32.9-28c-0.2-16.4,12.9-29.3,32-29.6
		c30.1-0.5,60.2-0.1,90.3-0.1c36.9,0,51.4-14.4,51.5-51.1c0-29.6-0.1-59.2,0.1-88.9c0.1-19.4,11.4-32.5,28-33
		c15.8-0.4,29.3,12.3,29.5,30.5c0.5,36.5,1.4,73.2-0.8,109.6c-3.3,53.5-45.1,90.4-99,90.6C806.3,893.8,790.5,893.7,774.8,893.7z"/>
	<path class="st1" d="M91.7,209.1c0-18-1-36.1,0.2-54.1c3.3-51.7,43.8-90.2,95.8-91.1c34.2-0.6,68.5-0.3,102.7-0.1
		c18.5,0.1,31.1,11.6,31.6,27.9c0.5,16.9-12.3,29.5-31.4,29.8c-31,0.4-62,0-93,0.1c-33.2,0.1-48.5,15.3-48.6,48.2
		c-0.1,31.9,0.2,63.8-0.3,95.8c-0.2,15.3-9.5,25.6-23.7,28.4c-12.3,2.5-25.8-4-30.7-16c-2.2-5.4-2.9-11.7-3-17.5
		c-0.4-17.1-0.1-34.2-0.1-51.3C91.4,209.1,91.6,209.1,91.7,209.1z"/>
	<path class="st1" d="M237.3,893.7c-16.7,0-33.3,0.1-50,0c-50-0.5-92.4-38.8-95.1-88.5c-2-37.8-1.1-75.8-0.6-113.8
		c0.2-16.7,12.9-28.2,28.3-28.3c15.7-0.2,28.6,12.3,28.8,29.4c0.5,31.9,0.1,63.8,0.2,95.8c0.1,32.5,15.2,47.5,47.6,47.6
		c28.7,0.1,57.4,0,86.1,0.1c6,0,12.1,0.1,17.9,1.5c13.7,3.2,22.5,16.3,21.3,30.2c-1.3,14.1-12,25.4-26.3,25.8
		C276.2,894.2,256.7,893.7,237.3,893.7C237.3,893.7,237.3,893.7,237.3,893.7z"/>
	<g>
		<path class="st1" d="M358.9,432.8c-21.4,0-42.9,0-63.7-0.1c-24.2-0.1-35.9-12-36-36.5c0-7.5,0-15,0-22.5l0-42.3c0-7,0-14,0-21
			c0-14.7,0-30,0-45c0.1-21.4,12.3-33.7,33.5-33.8c20.1-0.1,41.2-0.2,62.5-0.2c22.5,0,46.2,0.1,70.6,0.2c22.1,0.1,34,11.6,34.2,33.2
			c0.6,47.6,0.6,91.5,0,134.2c-0.4,27.6-19.5,33.5-35.4,33.6C402.5,432.8,380.4,432.8,358.9,432.8z M359,262.7
			c-16.6,0-33.9,0.1-51.4,0.3c-8,0.1-17,8.8-17.1,16.6c-0.4,29.7-0.4,59.1-0.3,90.1c0,7.2,0,14.5,0,21.8v10c0,0,44.4,0,51.2,0
			c22.7,0,47,0,71.6-0.4c8.7-0.1,15.8-10.8,15.9-17.7c0.4-36.4,0.4-70.1-0.1-102.8c-0.1-8.1-9.3-17.5-17.2-17.6
			C394.6,262.8,376.9,262.7,359,262.7z"/>
		<path class="st1" d="M355.3,241.5c22.5,0,46.2,0.1,70.6,0.2c16.6,0.1,24.1,7.3,24.3,23.4c0.6,47.5,0.6,91.3,0,133.9
			c-0.1,8.1-2.2,14.1-6.1,17.8c-5.1,4.8-13.3,5.9-19.3,5.9c-22.2,0.1-44.3,0.1-65.8,0.1c-21.4,0-42.9,0-63.7-0.1
			c-9.3,0-16-2.1-20-6.1c-5-5-6-13.9-6.1-20.4c0-7.4,0-15,0-22.4c0-3.5,0-7.1,0-10.6V358c0-8.8,0-17.7,0-26.6c0-7,0-14,0-21
			c0-14.7,0-30,0-45c0.1-16,7.8-23.8,23.6-23.9C312.9,241.6,333.9,241.5,355.3,241.5 M280.3,411.6h20c7,0,14,0,20.9,0
			c6.8,0,13.6,0,20.3,0c22.7,0,47.1,0,71.7-0.4c14.3-0.2,25.6-15,25.8-27.6c0.4-36.6,0.4-70.3-0.1-103.1
			c-0.2-13.7-13.6-27.3-27-27.5c-17.2-0.3-35-0.4-52.9-0.4c-16.7,0-34,0.1-51.5,0.3c-13.4,0.2-26.8,13.3-26.9,26.5
			c-0.4,29.8-0.4,59.1-0.3,90.3c0,7.2,0,14.5,0,21.8V411.6 M355.3,221.5c-20.9,0-41.8,0-62.6,0.2c-26.9,0.1-43.3,16.9-43.5,43.8
			c-0.1,22,0,44,0,66c0,10.6,0,21.2,0,31.8c0,11,0,22,0,33c0.1,29.9,16.1,46.3,46,46.4c21.3,0.1,42.5,0.1,63.8,0.1
			c21.9,0,43.9,0,65.8-0.1c28-0.1,44.9-15.7,45.3-43.4c0.7-44.8,0.6-89.7,0-134.5c-0.4-27.3-16.9-43-44.2-43.1
			C402.4,221.6,378.8,221.5,355.3,221.5L355.3,221.5z M341.5,391.6c-13.5,0-27.2,0-41.2,0c0-38.7-0.1-75.3,0.3-111.8
			c0-2.4,4.7-6.7,7.2-6.7c17.1-0.2,34.1-0.3,51.2-0.3c17.5,0,35.1,0.1,52.6,0.4c2.6,0,7.3,5,7.3,7.8c0.5,34.2,0.5,68.4,0.1,102.6
			c0,2.7-3.9,7.8-6.1,7.8C389.3,391.5,365.6,391.6,341.5,391.6L341.5,391.6z"/>
	</g>
	<path class="st2" d="M300.3,391.6c0-38.7-0.1-75.3,0.3-111.8c0-2.4,4.7-6.7,7.2-6.7c34.6-0.4,69.2-0.5,103.8,0.1
		c2.6,0,7.3,5,7.3,7.8c0.5,34.2,0.5,68.4,0.1,102.6c0,2.7-3.9,7.8-6.1,7.8C376,391.7,339.1,391.6,300.3,391.6z M331.6,360
		c19.6,0,37.6,0,55.5,0c0-19.4,0-37.8,0-56c-19.2,0-37.2,0-55.5,0C331.6,323.1,331.6,341.2,331.6,360z"/>
	<path class="st1" d="M331.6,360c0-18.8,0-36.9,0-56c18.2,0,36.3,0,55.5,0c0,18.3,0,36.6,0,56C369.2,360,351.2,360,331.6,360z"/>
</g>
<g class="st0">
	<path class="st3" d="M693.7,688.5c0-0.7,0-1.3,0-2L683,430.9c-0.2-5.8-5.1-10.4-11-10.1c-5.8,0.2-10.4,5.1-10.1,11l10.7,255.6
		l0,1.1c0,6.2-2.8,11.9-7.1,16.2c-4.5,4.4-10.6,7.2-17.1,7.4l0,0l0,0l-1.6,0l-1.3-0.1c-6.4-0.5-12.3-3.3-16.6-7.6
		c-4.3-4.3-7-10-6.9-16.3l0-0.4l1-19c0,0.5-0.1,1-0.2,1.5l1.3-21.7c0,0,0,0,0,0l-1.1,20.2c0-0.1,0-0.1,0-0.2l1.1-21.4l0.3-5.5l0-0.6
		l11.2-209.4c0.3-5.8-4.1-10.8-9.9-11.1c-5.8-0.3-10.8,4.1-11.1,9.9l-11.6,216.7c0-0.4,0.1-0.9,0.2-1.3l-1.3,22.6c0-0.4,0-0.7,0-1.1
		l1.1-20.2c0,0.1,0,0.1,0,0.2l-2.1,38.6l-0.1,2.1c-0.1,12.2,5,23.2,13.1,31.3c7.8,7.8,18.6,12.9,30.2,13.7l0.7,0.1l2.2,0.1
		c1,0,1.8,0,2.2,0l0,0c11.9-0.5,23-5.6,31-13.4C688.5,711.7,693.7,700.7,693.7,688.5z"/>
	<path class="st3" d="M716.7,234.7c0-5.8,4.8-10.5,10.6-10.5c5.8,0,10.5,4.8,10.5,10.6l-0.7,117.5c-0.1,24.2-10.2,46.1-26.2,62
		c-16,15.9-38.1,25.6-62.3,25.5c-24.2-0.1-46.1-10.2-62-26.2c-15.9-16-25.6-38.1-25.5-62.3l0.7-114.4c0-5.8,4.8-10.5,10.6-10.5
		c5.8,0,10.5,4.8,10.5,10.6l-0.7,114.4c-0.1,18.4,7.3,35.2,19.3,47.3c12,12.2,28.7,19.8,47.1,19.9l0,0c18.4,0.1,35.2-7.3,47.3-19.3
		c12.2-12,19.8-28.7,19.9-47.1L716.7,234.7z"/>
	<path class="st3" d="M613.7,257.8c0-5.8,4.8-10.5,10.6-10.5c5.8,0,10.5,4.8,10.5,10.6l-0.7,116.7c0,5.8-4.8,10.5-10.6,10.5
		c-5.8,0-10.5-4.8-10.5-10.6L613.7,257.8L613.7,257.8z M667.1,258.9l-0.7,115.8c0,5.8,4.7,10.6,10.5,10.6c5.8,0,10.6-4.7,10.6-10.5
		l0.7-115.8c0-5.8-4.7-10.6-10.5-10.6C671.9,248.4,667.1,253.1,667.1,258.9z"/>
</g>
<path class="st1" d="M249.8,605.3c0,18.6-0.3,37.2,0.1,55.9c0.8,42.7,33.4,75.8,76.2,76.5c37.7,0.6,75.4,0.3,113.1,0.1
	c18.4-0.1,31-11.7,30.9-27.7c-0.1-16-12.6-27.6-31.1-27.7c-33.7-0.2-67.4,0-101.1-0.1c-26.2,0-32.4-6.1-32.4-31.8
	c0-34.1,0.3-68.3-0.1-102.4c-0.3-22.7-19.5-36.1-38.7-27.7c-11.3,5-16.7,14.1-16.7,26.4C249.8,566.3,249.8,585.8,249.8,605.3z"/>
<path class="st1" d="M414.6,626.2c30,0.3,55.2-24.5,55.3-54.5c0.1-30-24.9-55-55-54.9c-30.1,0.1-54.8,25-54.7,55.2
	C360.4,601.4,385,626,414.6,626.2z"/>
<g>
	<path class="st1" d="M-1103.5,1747.6c0-21.8-0.1-43.5,0-65.3c0.2-26,16.3-43.1,42.1-43.4c45.8-0.5,91.6-0.5,137.4,0
		c24.8,0.3,41.3,17.7,41.5,42.7c0.3,45.4,0.3,90.7,0,136.1c-0.1,25.2-16.1,42.3-41.4,42.7c-46.3,0.7-92.6,0.7-138.8,0
		c-24.8-0.4-40.6-18-40.8-43.3C-1103.7,1793.9-1103.5,1770.7-1103.5,1747.6z"/>
	<path class="st1" d="M-488.4,1632.4c0-15.3,0.1-30.6,0-45.8c-0.4-31.3-16-47.1-47.1-47.2c-31-0.2-62,0-93-0.1
		c-20.2-0.1-33.6-11.9-33.5-29.2c0.1-17.2,13.3-28.5,34-28.5c31-0.1,62,0,93,0c61.3,0,102.5,39.1,104.4,100.3
		c1,32.4,0.4,64.8,0,97.2c-0.3,20.5-12.5,33.6-29.6,33.2c-17.6-0.4-28.2-13-28.3-34C-488.4,1663-488.4,1647.7-488.4,1632.4z"/>
	<path class="st1" d="M-577.8,2311.4c-17.1,0-34.3,0.1-51.4,0c-19.6-0.1-32.7-11.4-32.9-28c-0.2-16.4,12.9-29.3,32-29.6
		c30.1-0.5,60.2-0.1,90.3-0.1c36.9,0,51.4-14.4,51.5-51.1c0-29.6-0.1-59.2,0.1-88.9c0.1-19.4,11.4-32.5,28-33
		c15.8-0.4,29.3,12.3,29.5,30.5c0.5,36.5,1.4,73.2-0.8,109.6c-3.3,53.5-45.1,90.4-99,90.6C-546.3,2311.5-562.1,2311.4-577.8,2311.4z
		"/>
	<path class="st1" d="M-1260.9,1626.8c0-18-1-36.1,0.2-54.1c3.3-51.7,43.8-90.2,95.8-91.1c34.2-0.6,68.5-0.3,102.7-0.1
		c18.5,0.1,31.1,11.6,31.6,27.9c0.5,16.9-12.3,29.5-31.4,29.8c-31,0.4-62,0-93,0.1c-33.2,0.1-48.5,15.3-48.6,48.2
		c-0.1,31.9,0.2,63.8-0.3,95.8c-0.2,15.3-9.5,25.6-23.7,28.4c-12.3,2.5-25.8-4-30.7-16c-2.2-5.4-2.9-11.7-3-17.5
		c-0.4-17.1-0.1-34.2-0.1-51.3C-1261.2,1626.8-1261,1626.8-1260.9,1626.8z"/>
	<path class="st1" d="M-1115.3,2311.4c-16.7,0-33.3,0.1-50,0c-50-0.5-92.4-38.8-95.1-88.5c-2-37.8-1.1-75.8-0.6-113.8
		c0.2-16.7,12.9-28.2,28.3-28.3c15.7-0.2,28.6,12.3,28.8,29.4c0.5,31.9,0.1,63.8,0.2,95.8c0.1,32.5,15.2,47.5,47.6,47.6
		c28.7,0.1,57.4,0,86.1,0.1c6,0,12.1,0.1,17.9,1.5c13.7,3.2,22.5,16.3,21.3,30.2c-1.3,14.1-12,25.4-26.3,25.8
		C-1076.4,2311.9-1095.9,2311.4-1115.3,2311.4C-1115.3,2311.4-1115.3,2311.4-1115.3,2311.4z"/>
	<g>
		<path class="st1" d="M-993.7,1850.5c-21.5,0-42.9,0-63.7-0.1c-24.2-0.1-35.9-12-36-36.5c0-7.5,0-15,0-22.5l0-42.3c0-7,0-14,0-21
			c0-14.7,0-30,0-45c0.1-21.4,12.3-33.7,33.5-33.8c20.2-0.1,41.3-0.2,62.6-0.2c22.5,0,46.2,0.1,70.5,0.2c22.1,0.1,34,11.6,34.2,33.2
			c0.6,47.6,0.6,91.5,0,134.2c-0.4,27.6-19.5,33.5-35.4,33.6C-950.1,1850.5-972.3,1850.5-993.7,1850.5z M-993.6,1680.4
			c-16.6,0-33.9,0.1-51.3,0.3c-8,0.1-17,8.8-17.1,16.6c-0.4,29.7-0.4,59-0.3,90.1c0,7.2,0,14.5,0,21.8v10c0,0,44.4,0,51.1,0
			c22.7,0,47,0,71.6-0.4c8.7-0.1,15.8-10.8,15.9-17.7c0.4-36.5,0.4-70.1-0.1-102.8c-0.1-8.1-9.3-17.5-17.2-17.6
			C-958,1680.5-975.7,1680.4-993.6,1680.4z"/>
		<path class="st1" d="M-997.3,1659.2c22.5,0,46.2,0.1,70.6,0.2c16.6,0.1,24.1,7.3,24.3,23.4c0.6,47.5,0.6,91.3,0,133.9
			c-0.1,8.1-2.2,14.1-6.1,17.8c-5.1,4.8-13.3,5.9-19.3,5.9c-22.2,0.1-44.3,0.1-65.8,0.1c-21.4,0-42.9,0-63.7-0.1
			c-9.3,0-16-2.1-20-6.1c-5-5-6-13.9-6.1-20.4c0-7.5,0-15.1,0-22.4c0-3.5,0-7,0-10.5v-2.9c0-9.6,0-19.3,0-28.9c0-7,0-14,0-21.1
			c0-14.7,0-29.9,0-44.9c0.1-16,7.8-23.8,23.6-23.9C-1039.7,1659.2-1018.7,1659.2-997.3,1659.2 M-1072.3,1829.3h20c7,0,14,0,20.8,0
			c6.8,0,13.6,0,20.3,0c22.7,0,47.1,0,71.7-0.4c14.3-0.2,25.6-15,25.8-27.6c0.4-36.5,0.4-70.3-0.1-103.1
			c-0.2-13.7-13.6-27.3-27-27.5c-17.2-0.3-35-0.4-52.9-0.4c-16.7,0-34,0.1-51.5,0.3c-13.4,0.2-26.8,13.3-26.9,26.5
			c-0.4,29.8-0.4,59.1-0.3,90.3c0,7.2,0,14.5,0,21.8V1829.3 M-997.3,1639.2c-20.9,0-41.8,0-62.6,0.2c-26.9,0.1-43.3,16.9-43.5,43.8
			c-0.1,22,0,44,0,66c0,10.6,0,21.2,0,31.8c0,11,0,22,0,33c0.1,29.9,16.1,46.3,46,46.4c21.3,0.1,42.5,0.1,63.8,0.1
			c21.9,0,43.9,0,65.8-0.1c28-0.1,44.9-15.7,45.3-43.4c0.7-44.8,0.6-89.7,0-134.5c-0.4-27.3-16.9-43-44.2-43.1
			C-950.2,1639.3-973.8,1639.2-997.3,1639.2L-997.3,1639.2z M-1011.1,1809.3c-13.5,0-27.2,0-41.2,0c0-38.7-0.1-75.3,0.3-111.8
			c0-2.4,4.7-6.7,7.2-6.7c17.1-0.2,34.1-0.3,51.2-0.3c17.5,0,35.1,0.1,52.6,0.4c2.6,0,7.3,5,7.3,7.8c0.5,34.2,0.5,68.4,0.1,102.6
			c0,2.7-3.9,7.8-6.1,7.8C-963.3,1809.2-987,1809.3-1011.1,1809.3L-1011.1,1809.3z"/>
	</g>
	<path class="st2" d="M-1052.3,1809.3c0-38.7-0.1-75.3,0.3-111.8c0-2.4,4.7-6.7,7.2-6.7c34.6-0.4,69.2-0.5,103.8,0.1
		c2.6,0,7.3,5,7.3,7.8c0.5,34.2,0.5,68.4,0.1,102.6c0,2.7-3.9,7.8-6.1,7.8C-976.6,1809.4-1013.5,1809.3-1052.3,1809.3z
		 M-1021,1777.7c19.6,0,37.6,0,55.5,0c0-19.4,0-37.8,0-56c-19.2,0-37.2,0-55.5,0C-1021,1740.8-1021,1758.9-1021,1777.7z"/>
	<path class="st1" d="M-1021,1777.7c0-18.8,0-36.9,0-56c18.2,0,36.3,0,55.5,0c0,18.3,0,36.6,0,56
		C-983.4,1777.7-1001.4,1777.7-1021,1777.7z"/>
</g>
<g>
	<path class="st4" d="M-634.7,2111.4c-4.3,22.8-31.4,39.1-61.8,37.1c-28.4-1.9-51.5-21.5-50.5-43.9c1.3-29.6,3.7-59.2,5.7-88.8
		c1.4-20.7,2.7-41.4,4.1-62.1c1.7-26.5,3.5-53,5.2-79.6c0.2-3.2,1.2-4.3,5.5-3c4.9,1.4,10.1,2.4,15.3,3.1c3.8,0.5,5.1,1.6,4.8,4.7
		c-1.6,22.5-2.9,45-4.4,67.4c-1.4,20.9-2.9,41.7-4.3,62.6c-2.1,31.2-4.3,62.4-6.1,93.6c-0.7,12.2,7.9,21.3,22.3,24.6
		c13.8,3.1,28.4-1.5,35.6-11.4c2.6-3.6,3.9-7.5,3.7-11.6c-2.3-45.6-4.7-91.2-7.1-136.9c-1.5-29.1-3-58.2-4.8-87.4
		c-0.2-3.7,1.2-5.1,5.6-5.7c5.4-0.7,10.7-1.7,15.9-3.1c3.5-0.9,4.1-0.2,4.2,2.4c0.7,15.7,1.6,31.4,2.4,47.1
		c2.3,44.2,4.7,88.3,6.9,132.5C-636.2,2062-632.7,2100.7-634.7,2111.4z"/>
	<path class="st4" d="M-581.3,1715.5c0,18.1,0.1,36.3,0,54.4c-0.1,33.5-27.9,65-67.1,77.7c-60.6,19.7-129.5-9.1-144.4-60.4
		c-1.6-5.5-2.7-11.1-2.7-16.8c0.2-37.7,0.6-75.5,0.9-113.2c0.1-5.7,4.4-9.8,10.8-10.7c6.1-0.8,12.4,2.2,14.2,7.1
		c0.7,1.8,0.6,3.8,0.6,5.8c-0.3,35.8-0.8,71.6-0.8,107.4c0,24.3,12.9,43.3,38.5,56.7c47.5,24.8,114.5,0.8,123.2-44
		c2.5-12.9,1.1-25.9,1.3-38.8c0.6-28.2,0.9-56.4,0.8-84.5c0-7,6.2-11.8,12.7-11.9c7.9-0.1,12.2,4.6,12.2,12
		C-581.1,1675.5-581.3,1715.4-581.3,1715.5z"/>
	<path class="st4" d="M-731.4,1677.5c0-6.2,5.4-10.8,12.4-11c7.4-0.1,13.2,4.3,13.2,10.9c0,22.2-0.2,44.4-0.4,66.6
		c-0.1,15.1-0.3,30.1-0.6,45.2c-0.1,7.1-5.3,11.6-13,11.4c-7.7-0.2-12.6-4.8-12.6-11.8c0-18.5,0-55.4,0-55.4
		S-731.4,1696.1-731.4,1677.5z"/>
	<path class="st4" d="M-641.6,1734C-641.6,1734-641.6,1734-641.6,1734c0,18.1,0,36.2,0,54.4c0,8.1-4.7,12.4-13,12.4
		c-8.1,0-13-4.7-13-12.5c0.3-36.4,0.6-72.8,1-109.2c0.1-5.9,3.4-9.7,9.7-10.9c5.7-1.1,10.4,0.3,13.8,4.1c1.9,2.1,2.2,4.4,2.2,6.9
		C-641,1697.4-641.4,1733.8-641.6,1734z"/>
</g>
<path class="st1" d="M-1102.8,2023c0,18.6-0.3,37.2,0.1,55.9c0.8,42.7,33.4,75.8,76.2,76.5c37.7,0.6,75.4,0.3,113.1,0.1
	c18.4-0.1,31-11.7,30.9-27.7c-0.1-16-12.6-27.6-31.1-27.7c-33.7-0.2-67.4,0-101.1-0.1c-26.2,0-32.4-6.1-32.4-31.8
	c0-34.1,0.3-68.3-0.1-102.4c-0.3-22.7-19.5-36.1-38.7-27.7c-11.3,5-16.7,14.1-16.7,26.4C-1102.8,1984-1102.8,2003.5-1102.8,2023z"/>
<path class="st1" d="M-938,2043.9c30,0.3,55.2-24.5,55.3-54.5c0.1-30-24.9-55-55-54.9c-30.1,0.1-54.8,25-54.7,55.2
	C-992.2,2019.1-967.6,2043.7-938,2043.9z"/>
<rect x="-262.7" y="1638.5" style="fill:none;" width="2640" height="396"/>
<text transform="matrix(1 0 0 1 -262.7012 2016.6414)"><tspan x="0" y="0" style="fill:none;stroke:#FF7C00;stroke-width:18;stroke-miterlimit:10; font-family:'Raleway-Bold'; font-size:500px; letter-spacing:11;">scan</tspan><tspan x="1164" y="0" class="st1" style="font-family:'Raleway-Bold'; font-size:518px;">se</tspan><tspan x="1730.1" y="0" class="st1" style="font-family:'Raleway-Bold'; font-size:518px; letter-spacing:29;">r</tspan><tspan x="1959.6" y="0" class="st1" style="font-family:'Raleway-Bold'; font-size:518px;">ve</tspan></text>
<g>
	<path class="st4" d="M718.3,693.7c-4.3,22.8-31.4,39.1-61.8,37.1c-28.4-1.9-51.5-21.5-50.5-43.9c1.3-29.6,3.7-59.2,5.7-88.8
		c1.4-20.7,2.7-41.4,4.1-62.1c1.7-26.5,3.5-53,5.2-79.6c0.2-3.2,1.2-4.3,5.5-3c4.9,1.4,10.1,2.4,15.3,3.1c3.8,0.5,5.1,1.6,4.8,4.7
		c-1.6,22.5-2.9,45-4.4,67.4c-1.4,20.9-2.9,41.7-4.3,62.6c-2.1,31.2-4.3,62.4-6.1,93.6c-0.7,12.2,7.9,21.3,22.3,24.6
		c13.8,3.1,28.4-1.5,35.6-11.4c2.6-3.6,3.9-7.5,3.7-11.6c-2.3-45.6-4.7-91.2-7.1-136.9c-1.5-29.1-3-58.2-4.8-87.4
		c-0.2-3.7,1.2-5.1,5.6-5.7c5.4-0.7,10.7-1.7,15.9-3.1c3.5-0.9,4.1-0.2,4.2,2.4c0.7,15.7,1.6,31.4,2.4,47.1
		c2.3,44.2,4.7,88.3,6.9,132.5C716.8,644.3,720.3,683,718.3,693.7z"/>
	<path class="st4" d="M771.8,297.8c0,18.1,0.1,36.3,0,54.4c-0.1,33.5-27.9,65-67.1,77.7c-60.6,19.7-129.5-9.1-144.4-60.4
		c-1.6-5.5-2.7-11.1-2.7-16.8c0.2-37.7,0.6-75.5,0.9-113.2c0.1-5.7,4.4-9.8,10.8-10.7c6.1-0.8,12.4,2.2,14.2,7.1
		c0.7,1.8,0.6,3.8,0.6,5.8c-0.3,35.8-0.8,71.6-0.8,107.4c0,24.3,12.9,43.3,38.5,56.7c47.5,24.8,114.5,0.8,123.2-44
		c2.5-12.9,1.1-25.9,1.3-38.8c0.6-28.2,0.9-56.4,0.8-84.5c0-7,6.2-11.8,12.7-11.9c7.9-0.1,12.2,4.6,12.2,12
		C772,257.9,771.8,297.7,771.8,297.8z"/>
	<path class="st4" d="M621.7,259.8c0-6.2,5.4-10.8,12.4-11c7.4-0.1,13.2,4.3,13.2,10.9c0,22.2-0.2,44.4-0.4,66.6
		c-0.1,15.1-0.3,30.1-0.6,45.2c-0.1,7.1-5.3,11.6-13,11.4c-7.7-0.2-12.6-4.8-12.6-11.8c0-18.5,0-55.4,0-55.4
		S621.6,278.4,621.7,259.8z"/>
	<path class="st4" d="M711.5,316.3C711.5,316.3,711.5,316.3,711.5,316.3c0,18.1,0,36.2,0,54.4c0,8.1-4.7,12.4-13,12.4
		c-8.1,0-13-4.7-13-12.5c0.3-36.4,0.6-72.8,1-109.2c0.1-5.9,3.4-9.7,9.7-10.9c5.7-1.1,10.4,0.3,13.8,4.1c1.9,2.1,2.2,4.4,2.2,6.9
		C712.1,279.7,711.7,316.1,711.5,316.3z"/>
</g>
</svg>
